<?xml version="1.0" encoding="utf-8"?>
<!-- Generator: Adobe Illustrator 25.4.1, SVG Export Plug-In . SVG Version: 6.00 Build 0)  -->
<svg version="1.1"
	 id="Layer_1" xmlns:cc="http://creativecommons.org/ns#" xmlns:dc="http://purl.org/dc/elements/1.1/" xmlns:rdf="http://www.w3.org/1999/02/22-rdf-syntax-ns#"
	 xmlns="http://www.w3.org/2000/svg" xmlns:xlink="http://www.w3.org/1999/xlink" x="0px" y="0px" viewBox="0 0 522 123"
	 style="enable-background:new 0 0 522 123;" xml:space="preserve">
<style type="text/css">
	.st0{fill:none;}
	.st1{fill:#131E29;}
</style>
<rect id="backgroundrect" class="st0" width="522" height="123"/>
<g>
	<g id="svg_1">
		<path id="svg_2" class="st1" d="M302.8,108.7c0,1,0.3,1.6,0.9,1.6c0.5-0.1,0.9-0.3,1.3-0.5L467.7,4.2c2.7-1.9,6-2.9,9.4-2.8h35.8
			c5.5,0,9.2,3.7,9.2,9.1v68.3c0,8.2-1.8,13-9.1,17.4l-43.4,26.1c-0.4,0.3-0.9,0.5-1.5,0.5c-0.5,0-1-0.4-1-1.9V41.2
			c0-0.9-0.3-1.6-0.9-1.6c-0.5,0.1-0.9,0.2-1.3,0.5L346,117.4c-2.7,1.8-5.9,2.8-9.1,2.8H258c-5.5,0-9.2-3.7-9.2-9.2V12.6
			c0-0.7-0.3-1.4-0.9-1.4c-0.5,0.1-0.9,0.2-1.3,0.5l-78.4,47.1c-0.8,0.5-1,0.9-1,1.3c0,0.3,0.2,0.6,0.7,1.2l56.1,56
			c0.7,0.7,1.3,1.3,1.3,1.9c0,0.5-0.8,0.9-1.8,0.9h-50.6c-4,0-7-0.6-9.2-2.7l-34-33.9c-0.3-0.3-0.6-0.5-1-0.5c-0.4,0-0.7,0.1-1,0.3
			l-56.8,34.1c-3.4,2.1-5.8,2.7-9.2,2.7H9.2C3.7,120.2,0,116.4,0,111V44c0-8.3,1.8-13,9.2-17.4L52.8,0.4C53.2,0.1,53.6,0,54,0
			c0.7,0,1,0.7,1,2.2v89.7c0,0.9,0.2,1.4,0.9,1.4c0.5-0.1,0.9-0.3,1.3-0.5L204.6,4c2.8-1.9,6.3-2.9,9.7-2.7h79.3
			c5.5,0,9.2,3.7,9.2,9.1V108.7L302.8,108.7z"/>
	</g>
</g>
</svg>
